<?xml version="1.0"?><svg xmlns="http://www.w3.org/2000/svg"  viewBox="0 0 24 24" width="24px" height="24px">    <path d="M 5 3 C 3.895 3 3 3.895 3 5 L 3 19 C 3 20.105 3.895 21 5 21 L 19 21 C 20.105 21 21 20.105 21 19 L 21 5 C 21 3.895 20.105 3 19 3 L 5 3 z M 5 5 L 19 5 L 19 19 L 5 19 L 5 15.083984 L 7.0234375 15.738281 C 7.0154375 15.658281 7 15.581 7 15.5 C 7 14.863 7.246625 14.289563 7.640625 13.851562 L 5 12.986328 L 5 5 z M 14.5 6 C 12.567 6 11 7.567 11 9.5 C 11 9.634 11.024063 9.7625781 11.039062 9.8925781 L 8.8222656 13.103516 C 8.3572656 13.234516 7.953625 13.500609 7.640625 13.849609 L 9.8046875 14.560547 C 10.205687 14.690547 10.501953 15.055 10.501953 15.5 C 10.501953 16.052 10.053953 16.5 9.5019531 16.5 C 9.3929531 16.5 9.2913594 16.4695 9.1933594 16.4375 L 7.0253906 15.736328 C 7.1453906 17.004328 8.201 18 9.5 18 C 10.867 18 11.973094 16.902016 11.996094 15.541016 L 14.550781 12.994141 C 16.459781 12.966141 18 11.416 18 9.5 C 18 7.567 16.433 6 14.5 6 z M 14.5 8 C 15.328 8 16 8.672 16 9.5 C 16 10.328 15.328 11 14.5 11 C 13.672 11 13 10.328 13 9.5 C 13 8.672 13.672 8 14.5 8 z"/></svg>